<?xml version="1.0" encoding="utf-8"?>
<!-- Generator: Adobe Illustrator 26.0.1, SVG Export Plug-In . SVG Version: 6.00 Build 0)  -->
<svg version="1.1" id="Layer_1" xmlns="http://www.w3.org/2000/svg" xmlns:xlink="http://www.w3.org/1999/xlink" x="0px" y="0px"
	 viewBox="0 0 200 50" style="enable-background:new 0 0 200 50;" xml:space="preserve">
<style type="text/css">
	.st0{fill:#FFFFFF;}
</style>
<g>
	<g>
		<path class="st0" d="M14.1,20.8c-1.3,0-1.9,0.8-2,2.3h-0.2v-2.4H21v2.4h-0.2c-0.1-1.5-0.8-2.3-2-2.3h-1.1v9.6
			c0,0.8,0.4,1.1,1.3,1.1v0.2h-5.2v-0.2c0.9,0,1.3-0.4,1.3-1.1v-9.6H14.1L14.1,20.8z"/>
		<path class="st0" d="M30.7,24.8c0,0.3-0.1,0.7-0.4,0.9c-0.2,0.3-0.6,0.4-0.9,0.4c-0.3,0-0.7-0.1-0.9-0.4c-0.3-0.2-0.4-0.6-0.4-0.9
			l0.1-0.6c0-0.4-0.2-0.6-0.6-0.6c-0.7,0-1.4,0.4-2,1.1v5.8c0,0.8,0.4,1.1,1.3,1.1v0.2h-5.2v-0.2c0.9,0,1.3-0.4,1.3-1.1v-5.8
			c0-0.8-0.4-1.1-1.3-1.1v-0.2h3.2c0.1,0,0.2,0.1,0.3,0.3c0.1,0.2,0.2,0.3,0.3,0.5l0.1,0.3c0.3-0.3,0.7-0.6,1.1-0.8
			c0.4-0.2,1-0.3,1.8-0.3c0.5,0,1.1,0.1,1.6,0.4C30.5,23.8,30.7,24.3,30.7,24.8L30.7,24.8z"/>
		<path class="st0" d="M40.8,31.7h-3.2c-0.1,0-0.2-0.1-0.4-0.3c-0.1-0.2-0.2-0.3-0.2-0.3c-0.5,0.4-1.2,0.6-2,0.6
			c-1.4,0-2.5-0.3-3.3-0.9c-0.8-0.6-1.2-1.3-1.2-2.1c0-0.8,0.4-1.4,1.2-2c0.8-0.6,1.9-0.9,3.3-0.9c0.7,0,1.3,0.1,1.9,0.4v-0.4
			c0-1.7-0.7-2.5-2.1-2.5c-0.9,0-1.8,0.2-2.6,0.7l-0.1-0.1c0.8-0.5,1.7-0.7,2.7-0.7c3.1,0,4.7,1.4,4.7,4.3v2.9
			c0,0.8,0.4,1.1,1.3,1.1L40.8,31.7L40.8,31.7z M36.9,26.4c-0.6-0.3-1.3-0.4-1.9-0.4c-0.8,0-1.4,0.3-1.7,0.9
			c-0.2,0.3-0.3,0.9-0.3,1.8c0,1.1,0.1,1.9,0.4,2.2c0.3,0.4,0.8,0.6,1.5,0.6c0.8,0,1.5-0.2,2-0.6c0-0.7,0-1.3,0-1.9L36.9,26.4
			L36.9,26.4z"/>
		<path class="st0" d="M43.7,24.5l1.9,4.6l1.9-4.6c0.1-0.2,0.1-0.3,0.1-0.5c0-0.3-0.3-0.5-0.9-0.5v-0.2h2.1v0.2
			c-0.5,0-0.8,0.4-1.1,1.1l-1.9,4.8l-0.9,2.4h-0.5c-0.2,0-0.3-0.1-0.4-0.2c0,0-0.1-0.4-0.4-1l-2.4-6c-0.2-0.5-0.4-0.9-0.6-1
			c-0.2-0.1-0.4-0.1-0.8-0.1v-0.2h3.1C43.1,23.3,43.4,23.7,43.7,24.5L43.7,24.5z"/>
		<path class="st0" d="M58.4,31.7h-3.2c-0.1,0-0.2-0.1-0.4-0.3c-0.1-0.2-0.2-0.3-0.2-0.3c-0.6,0.4-1.2,0.6-2,0.6
			c-1.4,0-2.5-0.3-3.3-0.9c-0.8-0.6-1.2-1.3-1.2-2.1c0-0.8,0.4-1.4,1.2-2c0.8-0.6,1.9-0.9,3.3-0.9c0.7,0,1.3,0.1,1.9,0.4v-0.4
			c0-1.7-0.7-2.5-2.1-2.5c-0.9,0-1.8,0.2-2.6,0.7l-0.1-0.1c0.8-0.5,1.7-0.7,2.7-0.7c3.1,0,4.7,1.4,4.7,4.3v2.9
			c0,0.8,0.4,1.1,1.3,1.1L58.4,31.7L58.4,31.7z M54.5,26.4c-0.6-0.3-1.3-0.4-1.9-0.4c-0.8,0-1.4,0.3-1.7,0.9
			c-0.2,0.3-0.3,0.9-0.3,1.8c0,1.1,0.1,1.9,0.4,2.2c0.3,0.4,0.8,0.6,1.5,0.6c0.8,0,1.5-0.2,2-0.6c0-0.7,0-1.3,0-1.9L54.5,26.4
			L54.5,26.4z"/>
		<path class="st0" d="M67.2,20.7v9.7c0,0.8,0.4,1.1,1.3,1.1v0.2h-3.2c-0.1,0-0.2-0.1-0.4-0.3c-0.1-0.1-0.1-0.2-0.2-0.3
			c-0.6,0.4-1.1,0.6-1.7,0.6c-1.3,0-2.3-0.4-3.1-1.1c-0.8-0.8-1.2-1.8-1.2-3.2c0-1.3,0.4-2.4,1.1-3.1c0.8-0.8,1.8-1.1,3.1-1.1
			c0.5,0,1.1,0.2,1.6,0.5v-3.1c0-0.8-0.4-1.1-1.3-1.1v-0.2h3.2C67,19.4,67.2,19.8,67.2,20.7L67.2,20.7z M61.3,27.5
			c0,1.8,0.1,2.9,0.2,3.2c0.3,0.6,0.7,0.9,1.4,0.9c0.6,0,1.1-0.2,1.7-0.6c0-0.2,0-0.4,0-0.6v-6.5c-0.5-0.4-1.1-0.6-1.6-0.6
			c-0.7,0-1.2,0.3-1.4,0.9C61.4,24.6,61.3,25.7,61.3,27.5L61.3,27.5z"/>
		<path class="st0" d="M79,31.7h-3.2c-0.1,0-0.2-0.1-0.4-0.3c-0.1-0.2-0.2-0.3-0.2-0.3c-0.6,0.4-1.2,0.6-2,0.6
			c-1.4,0-2.5-0.3-3.3-0.9c-0.8-0.6-1.2-1.3-1.2-2.1c0-0.8,0.4-1.4,1.2-2c0.8-0.6,1.9-0.9,3.3-0.9c0.7,0,1.3,0.1,1.9,0.4v-0.4
			c0-1.7-0.7-2.5-2.1-2.5c-0.9,0-1.8,0.2-2.6,0.7l-0.1-0.1c0.8-0.5,1.7-0.7,2.7-0.7c3.1,0,4.7,1.4,4.7,4.3v2.9
			c0,0.8,0.4,1.1,1.3,1.1L79,31.7L79,31.7z M75.1,26.4c-0.6-0.3-1.3-0.4-1.9-0.4c-0.8,0-1.4,0.3-1.7,0.9c-0.2,0.3-0.3,0.9-0.3,1.8
			c0,1.1,0.1,1.9,0.4,2.2c0.3,0.4,0.8,0.6,1.5,0.6c0.8,0,1.5-0.2,2-0.6c0-0.7,0-1.3,0-1.9V26.4z"/>
	</g>
	<g>
		<path class="st0" d="M126.8,20.4c0.5,0,0.9,0.1,1.3,0.2c0.3,0.1,0.7,0.2,1.1,0.2c0.3,0,0.5-0.1,0.5-0.3h0.2L130,23h-0.2
			c0-0.2-0.1-0.4-0.1-0.6c-0.1-0.3-0.3-0.5-0.4-0.8c-0.2-0.3-0.5-0.5-1-0.7c-0.5-0.2-1-0.3-1.5-0.3c-1.1,0-1.7,0.4-1.7,1.1
			c0,0.7,0.3,1.3,1,1.9l3.1,2.6c1.1,0.8,1.6,1.7,1.6,2.7c0,0.9-0.5,1.5-1.5,2.1c-0.8,0.4-1.9,0.7-3.1,0.7c-0.8,0-1.5-0.2-2.1-0.6
			c-0.1-0.1-0.3-0.2-0.5-0.2c-0.2,0-0.4,0.1-0.5,0.4c0,0.1-0.1,0.2,0,0.3H123l0-2.5h0.2c0,0.2,0,0.3,0.1,0.5
			c0.1,0.5,0.4,0.9,0.9,1.3c0.3,0.2,0.6,0.4,0.9,0.5c0.4,0.1,0.8,0.2,1.2,0.2c0.6,0,1.1-0.1,1.4-0.4c0.4-0.3,0.6-0.7,0.6-1.1
			c0-0.7-0.2-1.3-0.7-1.6l-3.1-2.6c-1-0.8-1.4-1.7-1.4-2.7c0-0.8,0.4-1.4,1.2-1.9C124.9,20.6,125.8,20.4,126.8,20.4L126.8,20.4z"/>
		<path class="st0" d="M134.8,24.3l1.9,4.6l1.9-4.6c0.1-0.2,0.1-0.3,0.1-0.5c0-0.3-0.3-0.5-1-0.5v-0.2h2.1v0.2
			c-0.5,0-0.8,0.4-1.1,1.1l-1.9,4.8l-0.9,2.3l-0.9,2.3c-0.4,0.8-0.8,1.2-1.4,1.2c-0.7,0-1.3-0.6-1.3-1.3c0-0.3,0.1-0.7,0.4-0.9
			c0.2-0.2,0.6-0.4,0.9-0.4c0.3,0,0.6,0.1,0.9,0.3c0.2,0.2,0.4,0.3,0.5,0.3c0.1,0,0.1-0.1,0.2-0.1l0.5-1.3h-0.3
			c-0.2,0-0.4-0.1-0.4-0.2c0,0-0.1-0.4-0.4-1l-2.4-6c-0.2-0.5-0.4-0.8-0.6-1c-0.2-0.1-0.4-0.1-0.8-0.1v-0.2h3.1
			C134.1,23.1,134.5,23.5,134.8,24.3L134.8,24.3z"/>
		<path class="st0" d="M146.3,23.2h0.2l0.1,2.3h-0.2c0-0.4-0.2-0.8-0.5-1.3c-0.2-0.3-0.5-0.5-0.9-0.7c-0.5-0.2-1-0.3-1.5-0.3
			c-0.5,0-0.9,0.1-1.2,0.4c-0.3,0.3-0.4,0.5-0.4,0.8c0,0.4,0.1,0.6,0.4,0.8c0.3,0.2,0.6,0.4,0.9,0.5l2.4,1.1c1,0.5,1.5,1.2,1.5,2.1
			c0,1.7-1.3,2.6-3.9,2.6c-0.4,0-0.8-0.1-1.2-0.2c-0.5-0.1-0.9-0.4-1.3-0.7c-0.1-0.1-0.3-0.2-0.4-0.2c-0.3,0-0.4,0.3-0.4,0.9h-0.2
			l0.1-2.5h0.2c0,0.2,0.1,0.4,0.2,0.6c0.3,0.7,0.9,1.2,1.5,1.5c0.5,0.2,1,0.3,1.5,0.3c1.1,0,1.7-0.4,1.7-1.2c0-0.6-0.3-1-1-1.4
			l-2.3-1c-0.5-0.2-0.9-0.5-1.3-1c-0.3-0.4-0.4-0.8-0.4-1.3c0-0.8,0.4-1.5,1-1.9c0.7-0.5,1.5-0.7,2.6-0.7c0.5,0,0.9,0.1,1.3,0.2
			c0.3,0.1,0.6,0.2,0.9,0.2C146.1,23.5,146.3,23.4,146.3,23.2L146.3,23.2z"/>
		<path class="st0" d="M151.2,27.6v2.2c0,1.1,0.3,1.7,1,1.7c0.6,0,1.1-0.3,1.4-0.8l0.1,0.1c-0.3,0.6-0.8,0.9-1.5,0.9
			c-2.4,0-3.6-1.4-3.6-4.1v-3.2c0-0.8-0.4-1.1-1.3-1.1v-0.2h0.7c1,0,1.6-0.8,1.6-2.3h1.6v2.3h2.8v0.2h-2.8V27.6z"/>
		<path class="st0" d="M158.4,31.6c-1.5,0-2.6-0.4-3.4-1.1c-0.8-0.7-1.2-1.8-1.2-3.2c0-1.4,0.4-2.4,1.2-3.2c0.8-0.8,1.9-1.1,3.4-1.1
			c1.4,0,2.6,0.4,3.4,1.1c0.8,0.7,1.2,1.8,1.2,3.2h-6.5c0,1.9,0.1,3,0.3,3.3c0.4,0.5,1,0.8,1.6,0.8c0.8,0,1.6-0.2,2.3-0.6
			c0.7-0.4,1.3-0.9,1.7-1.6l0.1,0.1C161.6,30.8,160.1,31.6,158.4,31.6L158.4,31.6z M156.4,27.2h3.9c0-1.6-0.1-2.6-0.2-3
			c-0.3-0.7-0.9-1-1.7-1c-0.8,0-1.4,0.3-1.6,0.8C156.6,24.6,156.4,25.6,156.4,27.2L156.4,27.2z"/>
		<path class="st0" d="M167.2,24.4v5.8c0,0.8,0.4,1.1,1.3,1.1v0.2h-5.2v-0.2c0.9,0,1.3-0.4,1.3-1.1v-5.8c0-0.8-0.4-1.1-1.3-1.1v-0.2
			h3.2c0.1,0,0.2,0.1,0.3,0.2c0.1,0.1,0.1,0.2,0.2,0.3c0.6-0.4,1.1-0.6,1.7-0.6c1.7,0,2.9,0.4,3.6,1.1c0.2-0.2,0.4-0.4,0.6-0.5
			c0.6-0.4,1.2-0.6,1.7-0.6c2.8,0,4.2,1,4.2,3v4.2c0,0.8,0.4,1.1,1.3,1.1v0.2h-5.2v-0.2c0.9,0,1.3-0.4,1.3-1.1v-4.1c0-2-0.5-3-1.6-3
			c-0.6,0-1.1,0.2-1.7,0.6c-0.2,0.1-0.4,0.3-0.5,0.5c0.4,0.5,0.5,1,0.5,1.8v4.2c0,0.8,0.4,1.1,1.3,1.1v0.2h-5.2v-0.2
			c0.9,0,1.3-0.4,1.3-1.1v-4.1c0-2-0.5-3-1.6-3c-0.6,0-1.1,0.2-1.7,0.6C167.1,24,167.1,24.2,167.2,24.4L167.2,24.4z"/>
		<path class="st0" d="M187.3,23.2h0.2l0.1,2.3h-0.2c0-0.4-0.2-0.8-0.5-1.3c-0.2-0.3-0.5-0.6-0.9-0.7c-0.5-0.2-1-0.3-1.5-0.3
			c-0.5,0-0.9,0.1-1.2,0.4c-0.3,0.3-0.4,0.5-0.4,0.8c0,0.4,0.1,0.6,0.4,0.8c0.3,0.2,0.6,0.4,0.9,0.5l2.4,1.1c1,0.5,1.5,1.2,1.5,2.1
			c0,1.7-1.3,2.6-3.9,2.6c-0.4,0-0.8-0.1-1.2-0.2c-0.5-0.1-0.9-0.4-1.3-0.7c-0.1-0.1-0.3-0.2-0.4-0.2c-0.3,0-0.4,0.3-0.4,0.9h-0.2
			l0.1-2.5h0.2c0,0.2,0.1,0.4,0.2,0.6c0.3,0.7,0.9,1.2,1.5,1.5c0.5,0.2,1,0.3,1.5,0.3c1.1,0,1.7-0.4,1.7-1.2c0-0.6-0.3-1-1-1.4
			l-2.3-1c-0.6-0.3-1-0.6-1.3-1c-0.3-0.4-0.4-0.8-0.4-1.3c0-0.8,0.4-1.5,1-1.9c0.7-0.5,1.5-0.7,2.6-0.7c0.5,0,0.9,0.1,1.3,0.2
			c0.3,0.1,0.6,0.2,0.9,0.2C187.1,23.5,187.3,23.4,187.3,23.2L187.3,23.2z"/>
	</g>
	<g>
		<circle class="st0" cx="90.7" cy="34" r="3.4"/>
		<path class="st0" d="M116,21.9c0,0.4,0,0.8,0,1.3c-0.1,2.5-0.6,5-1.5,7.4c-0.5,1.3-1,2.5-1.7,3.7c-0.1,0.2-0.2,0.4-0.3,0.5
			c-0.6,1-1.2,1.9-1.9,2.8c-0.1,0.1-0.2,0.3-0.3,0.4l-0.3-0.1l-0.5-0.3l-5.5-2.7l-1.1-0.5c0.7-2.1,1.1-4.4,1.1-6.6v-0.9
			c0-0.7-0.4-1.3-1-1.6c-0.6-0.3-1.3-0.6-2-0.9c-1-0.4-2-0.7-3.1-0.9c-0.6-0.1-1.2-0.2-1.8-0.3h-2.4V23l-0.5-3.1l-0.8-5.1
			c0.4-0.2,0.8-0.5,1.3-0.7c1.2-0.6,2.5-1.1,3.8-1.4c0.1,0,0.3-0.1,0.4-0.1c1.6-0.4,3.3-0.6,4.9-0.6c0.4,0,0.7,0,1.1,0
			c4.1,0.2,8.1,1.7,11.4,4.2c0.3,1.2,0.5,2.5,0.6,3.7C116,20.6,116,21.2,116,21.9L116,21.9z"/>
	</g>
</g>
</svg>
