<svg id="Layer_1" data-name="Layer 1" xmlns="http://www.w3.org/2000/svg" viewBox="0 0 32 32"><defs><style>.cls-1{fill:#1cb447;}</style></defs><circle class="cls-1" cx="4.27" cy="25.57" r="3.59"/><path class="cls-1" d="M31.32,12.72c0,.45,0,.9,0,1.35A26.55,26.55,0,0,1,29.69,22a26.32,26.32,0,0,1-1.82,4,6.32,6.32,0,0,1-.33.56,23.75,23.75,0,0,1-2,2.95c-.09.14-.21.29-.32.43l-.27-.14-.57-.29-5.87-2.93-1.16-.58a20.76,20.76,0,0,0,.93-4,21.28,21.28,0,0,0,.23-3.11v-.93a1.94,1.94,0,0,0-1.06-1.72,21.15,21.15,0,0,0-2.09-.91,20.52,20.52,0,0,0-3.29-1c-.62-.12-1.24-.23-1.88-.29H7.58v-.16l-.5-3.34L6.25,5.08c.43-.26.88-.49,1.33-.72a21.61,21.61,0,0,1,4-1.49l.44-.11a21.55,21.55,0,0,1,5.24-.64c.4,0,.8,0,1.19,0a21.72,21.72,0,0,1,6.44,1.34,21.7,21.7,0,0,1,5.7,3.1,25.16,25.16,0,0,1,.61,4c.06.71.09,1.43.09,2.15Z"/></svg>