<svg id="Layer_1" data-name="Layer 1" xmlns="http://www.w3.org/2000/svg" viewBox="0 0 32 32"><defs><style>.cls-1{fill:#053030;}</style></defs><circle class="cls-1" cx="4.53" cy="25.36" r="3.51"/><path class="cls-1" d="M31,12.79c0,.44,0,.88,0,1.33a26.11,26.11,0,0,1-1.56,7.73,24.65,24.65,0,0,1-1.78,3.87c-.1.18-.2.36-.32.55a25.78,25.78,0,0,1-2,2.88c-.1.13-.21.28-.32.41l-.26-.13-.56-.28-5.73-2.86-1.14-.57a20.77,20.77,0,0,0,.91-3.87,20.47,20.47,0,0,0,.23-3.05v-.9a1.9,1.9,0,0,0-1-1.68,20.54,20.54,0,0,0-2.05-.9,21,21,0,0,0-3.21-.93c-.61-.11-1.21-.22-1.84-.28H7.77V14l-.49-3.27L6.47,5.33c.43-.25.86-.49,1.3-.71a21.36,21.36,0,0,1,3.94-1.46l.42-.1a21.2,21.2,0,0,1,5.13-.62q.58,0,1.17,0A21.66,21.66,0,0,1,30.29,6.81a24.88,24.88,0,0,1,.6,3.88c.06.7.08,1.4.08,2.1Z"/></svg>